<svg width="1200" height="800" viewBox="0 0 1200 800" fill="none" xmlns="http://www.w3.org/2000/svg">
  <rect width="1200" height="800" rx="48" fill="#0A0A0A"/>
  <rect x="72" y="72" width="1056" height="656" rx="32" fill="#111014" stroke="rgba(255,255,255,0.12)" stroke-width="2"/>
  <rect x="104" y="104" width="992" height="72" rx="20" fill="#17141D"/>
  <circle cx="143" cy="140" r="10" fill="#EF4444"/>
  <circle cx="176" cy="140" r="10" fill="#F59E0B"/>
  <circle cx="209" cy="140" r="10" fill="#22C55E"/>
  <rect x="828" y="126" width="132" height="28" rx="14" fill="#8B31FF"/>
  <rect x="976" y="126" width="72" height="28" rx="14" fill="rgba(255,255,255,0.1)"/>
  <rect x="104" y="208" width="88" height="384" rx="24" fill="#17141D" stroke="rgba(255,255,255,0.08)" stroke-width="2"/>
  <rect x="126" y="236" width="44" height="44" rx="14" fill="#8B31FF"/>
  <rect x="126" y="298" width="44" height="44" rx="14" fill="rgba(255,255,255,0.08)"/>
  <rect x="126" y="360" width="44" height="44" rx="14" fill="rgba(255,255,255,0.08)"/>
  <rect x="126" y="422" width="44" height="44" rx="14" fill="rgba(255,255,255,0.08)"/>
  <rect x="126" y="484" width="44" height="44" rx="14" fill="rgba(255,255,255,0.08)"/>
  <rect x="232" y="208" width="864" height="384" rx="28" fill="#0F0D13" stroke="rgba(255,255,255,0.08)" stroke-width="2"/>
  <path d="M275 541C383 452 448 446 546 485C612 512 679 530 741 464C816 385 879 330 1032 361" stroke="#8B31FF" stroke-width="18" stroke-linecap="round"/>
  <path d="M298 317H483V421H298V317Z" fill="rgba(14,165,233,0.18)" stroke="#38BDF8" stroke-width="8"/>
  <path d="M707 280C707 255.699 726.699 236 751 236H912C936.301 236 956 255.699 956 280V388C956 412.301 936.301 432 912 432H751C726.699 432 707 412.301 707 388V280Z" fill="rgba(250,204,21,0.18)" stroke="#FACC15" stroke-width="8"/>
  <path d="M575 302L633 360L575 418" stroke="#22C55E" stroke-width="12" stroke-linecap="round" stroke-linejoin="round"/>
  <path d="M654 302L596 360L654 418" stroke="#22C55E" stroke-width="12" stroke-linecap="round" stroke-linejoin="round"/>
  <g filter="url(#glow)">
    <path d="M827 492L863 612L898 552L965 543L827 492Z" fill="#FFFFFF"/>
    <path d="M827 492L863 612L898 552L965 543L827 492Z" stroke="#8B31FF" stroke-width="6" stroke-linejoin="round"/>
  </g>
  <rect x="880" y="594" width="114" height="38" rx="19" fill="#8B31FF"/>
  <text x="937" y="619" text-anchor="middle" fill="white" font-family="Inter, Arial, sans-serif" font-size="18" font-weight="700">Aditya</text>
  <rect x="232" y="624" width="864" height="72" rx="22" fill="#17141D"/>
  <rect x="264" y="646" width="188" height="28" rx="14" fill="rgba(139,49,255,0.35)"/>
  <rect x="476" y="646" width="112" height="28" rx="14" fill="rgba(255,255,255,0.08)"/>
  <rect x="612" y="646" width="144" height="28" rx="14" fill="rgba(255,255,255,0.08)"/>
  <rect x="780" y="646" width="84" height="28" rx="14" fill="rgba(255,255,255,0.08)"/>
  <defs>
    <filter id="glow" x="797" y="462" width="198" height="180" filterUnits="userSpaceOnUse" color-interpolation-filters="sRGB">
      <feFlood flood-opacity="0" result="BackgroundImageFix"/>
      <feColorMatrix in="SourceAlpha" type="matrix" values="0 0 0 0 0 0 0 0 0 0 0 0 0 0 0 0 0 0 127 0" result="hardAlpha"/>
      <feOffset/>
      <feGaussianBlur stdDeviation="15"/>
      <feComposite in2="hardAlpha" operator="out"/>
      <feColorMatrix type="matrix" values="0 0 0 0 0.545 0 0 0 0 0.192 0 0 0 0 1 0 0 0 0.7 0"/>
      <feBlend mode="normal" in2="BackgroundImageFix" result="effect1_dropShadow"/>
      <feBlend mode="normal" in="SourceGraphic" in2="effect1_dropShadow" result="shape"/>
    </filter>
  </defs>
</svg>
